<svg width="1363" height="163" viewBox="0 0 1363 163" fill="none" xmlns="http://www.w3.org/2000/svg">
<path d="M0 15C0 6.71573 6.71573 0 15 0H37V163H15C6.71573 163 0 156.284 0 148V15Z" fill="#424242"/>
<rect width="1097" height="163" transform="translate(37)" fill="#F0F0F0"/>
<path d="M101.906 53.9219L94.3945 51.2383V48.0859L104.602 52.375V54.6367L101.906 53.9219ZM94.3945 56.1719L101.918 53.4297L104.602 52.7852V55.0352L94.3945 59.3242V56.1719ZM119.578 53.5117H115.195L115.172 51.0977H118.852C119.5 51.0977 120.031 51.0156 120.445 50.8516C120.859 50.6797 121.168 50.4336 121.371 50.1133C121.582 49.7852 121.688 49.3867 121.688 48.918C121.688 48.3867 121.586 47.957 121.383 47.6289C121.188 47.3008 120.879 47.0625 120.457 46.9141C120.043 46.7656 119.508 46.6914 118.852 46.6914H116.414V61H112.898V43.9375H118.852C119.844 43.9375 120.73 44.0312 121.512 44.2188C122.301 44.4062 122.969 44.6914 123.516 45.0742C124.062 45.457 124.48 45.9414 124.77 46.5273C125.059 47.1055 125.203 47.793 125.203 48.5898C125.203 49.293 125.043 49.9414 124.723 50.5352C124.41 51.1289 123.914 51.6133 123.234 51.9883C122.562 52.3633 121.684 52.5703 120.598 52.6094L119.578 53.5117ZM119.426 61H114.234L115.605 58.2578H119.426C120.043 58.2578 120.547 58.1602 120.938 57.9648C121.328 57.7617 121.617 57.4883 121.805 57.1445C121.992 56.8008 122.086 56.4062 122.086 55.9609C122.086 55.4609 122 55.0273 121.828 54.6602C121.664 54.293 121.398 54.0117 121.031 53.8164C120.664 53.6133 120.18 53.5117 119.578 53.5117H116.191L116.215 51.0977H120.434L121.242 52.0469C122.281 52.0312 123.117 52.2148 123.75 52.5977C124.391 52.9727 124.855 53.4609 125.145 54.0625C125.441 54.6641 125.59 55.3086 125.59 55.9961C125.59 57.0898 125.352 58.0117 124.875 58.7617C124.398 59.5039 123.699 60.0625 122.777 60.4375C121.863 60.8125 120.746 61 119.426 61ZM127.477 54.7891V54.543C127.477 53.6133 127.609 52.7578 127.875 51.9766C128.141 51.1875 128.527 50.5039 129.035 49.9258C129.543 49.3477 130.168 48.8984 130.91 48.5781C131.652 48.25 132.504 48.0859 133.465 48.0859C134.426 48.0859 135.281 48.25 136.031 48.5781C136.781 48.8984 137.41 49.3477 137.918 49.9258C138.434 50.5039 138.824 51.1875 139.09 51.9766C139.355 52.7578 139.488 53.6133 139.488 54.543V54.7891C139.488 55.7109 139.355 56.5664 139.09 57.3555C138.824 58.1367 138.434 58.8203 137.918 59.4062C137.41 59.9844 136.785 60.4336 136.043 60.7539C135.301 61.0742 134.449 61.2344 133.488 61.2344C132.527 61.2344 131.672 61.0742 130.922 60.7539C130.18 60.4336 129.551 59.9844 129.035 59.4062C128.527 58.8203 128.141 58.1367 127.875 57.3555C127.609 56.5664 127.477 55.7109 127.477 54.7891ZM130.852 54.543V54.7891C130.852 55.3203 130.898 55.8164 130.992 56.2773C131.086 56.7383 131.234 57.1445 131.438 57.4961C131.648 57.8398 131.922 58.1094 132.258 58.3047C132.594 58.5 133.004 58.5977 133.488 58.5977C133.957 58.5977 134.359 58.5 134.695 58.3047C135.031 58.1094 135.301 57.8398 135.504 57.4961C135.707 57.1445 135.855 56.7383 135.949 56.2773C136.051 55.8164 136.102 55.3203 136.102 54.7891V54.543C136.102 54.0273 136.051 53.543 135.949 53.0898C135.855 52.6289 135.703 52.2227 135.492 51.8711C135.289 51.5117 135.02 51.2305 134.684 51.0273C134.348 50.8242 133.941 50.7227 133.465 50.7227C132.988 50.7227 132.582 50.8242 132.246 51.0273C131.918 51.2305 131.648 51.5117 131.438 51.8711C131.234 52.2227 131.086 52.6289 130.992 53.0898C130.898 53.543 130.852 54.0273 130.852 54.543ZM141.023 54.7891V54.543C141.023 53.6133 141.156 52.7578 141.422 51.9766C141.688 51.1875 142.074 50.5039 142.582 49.9258C143.09 49.3477 143.715 48.8984 144.457 48.5781C145.199 48.25 146.051 48.0859 147.012 48.0859C147.973 48.0859 148.828 48.25 149.578 48.5781C150.328 48.8984 150.957 49.3477 151.465 49.9258C151.98 50.5039 152.371 51.1875 152.637 51.9766C152.902 52.7578 153.035 53.6133 153.035 54.543V54.7891C153.035 55.7109 152.902 56.5664 152.637 57.3555C152.371 58.1367 151.98 58.8203 151.465 59.4062C150.957 59.9844 150.332 60.4336 149.59 60.7539C148.848 61.0742 147.996 61.2344 147.035 61.2344C146.074 61.2344 145.219 61.0742 144.469 60.7539C143.727 60.4336 143.098 59.9844 142.582 59.4062C142.074 58.8203 141.688 58.1367 141.422 57.3555C141.156 56.5664 141.023 55.7109 141.023 54.7891ZM144.398 54.543V54.7891C144.398 55.3203 144.445 55.8164 144.539 56.2773C144.633 56.7383 144.781 57.1445 144.984 57.4961C145.195 57.8398 145.469 58.1094 145.805 58.3047C146.141 58.5 146.551 58.5977 147.035 58.5977C147.504 58.5977 147.906 58.5 148.242 58.3047C148.578 58.1094 148.848 57.8398 149.051 57.4961C149.254 57.1445 149.402 56.7383 149.496 56.2773C149.598 55.8164 149.648 55.3203 149.648 54.7891V54.543C149.648 54.0273 149.598 53.543 149.496 53.0898C149.402 52.6289 149.25 52.2227 149.039 51.8711C148.836 51.5117 148.566 51.2305 148.23 51.0273C147.895 50.8242 147.488 50.7227 147.012 50.7227C146.535 50.7227 146.129 50.8242 145.793 51.0273C145.465 51.2305 145.195 51.5117 144.984 51.8711C144.781 52.2227 144.633 52.6289 144.539 53.0898C144.445 53.543 144.398 54.0273 144.398 54.543ZM158.484 42.9883V61H155.109V42.9883H158.484ZM166.477 48.3203L160.969 54.6016L158.016 57.5898L156.785 55.1523L159.129 52.1758L162.422 48.3203H166.477ZM162.973 61L159.223 55.1406L161.555 53.1016L166.863 61H162.973ZM179.52 50.8867V53.6289H170.613V50.8867H179.52ZM171.656 43.9375V61H168.141V43.9375H171.656ZM182.027 43.9375V61H178.523V43.9375H182.027ZM192.375 57.9648V48.3203H195.75V61H192.574L192.375 57.9648ZM192.75 55.3633L193.746 55.3398C193.746 56.1836 193.648 56.9688 193.453 57.6953C193.258 58.4141 192.965 59.0391 192.574 59.5703C192.184 60.0938 191.691 60.5039 191.098 60.8008C190.504 61.0898 189.805 61.2344 189 61.2344C188.383 61.2344 187.812 61.1484 187.289 60.9766C186.773 60.7969 186.328 60.5195 185.953 60.1445C185.586 59.7617 185.297 59.2734 185.086 58.6797C184.883 58.0781 184.781 57.3555 184.781 56.5117V48.3203H188.156V56.5352C188.156 56.9102 188.199 57.2266 188.285 57.4844C188.379 57.7422 188.508 57.9531 188.672 58.1172C188.836 58.2812 189.027 58.3984 189.246 58.4688C189.473 58.5391 189.723 58.5742 189.996 58.5742C190.691 58.5742 191.238 58.4336 191.637 58.1523C192.043 57.8711 192.328 57.4883 192.492 57.0039C192.664 56.5117 192.75 55.9648 192.75 55.3633ZM198.328 43H201.703V58.0938L201.363 61H198.328V43ZM209.73 54.5312V54.7773C209.73 55.7227 209.629 56.5898 209.426 57.3789C209.23 58.168 208.926 58.8516 208.512 59.4297C208.098 60 207.582 60.4453 206.965 60.7656C206.355 61.0781 205.637 61.2344 204.809 61.2344C204.035 61.2344 203.363 61.0781 202.793 60.7656C202.23 60.4531 201.758 60.0117 201.375 59.4414C200.992 58.8711 200.684 58.2031 200.449 57.4375C200.215 56.6719 200.039 55.8359 199.922 54.9297V54.3906C200.039 53.4844 200.215 52.6484 200.449 51.8828C200.684 51.1172 200.992 50.4492 201.375 49.8789C201.758 49.3086 202.23 48.8672 202.793 48.5547C203.355 48.2422 204.02 48.0859 204.785 48.0859C205.621 48.0859 206.348 48.2461 206.965 48.5664C207.59 48.8789 208.105 49.3242 208.512 49.9023C208.926 50.4727 209.23 51.1523 209.426 51.9414C209.629 52.7227 209.73 53.5859 209.73 54.5312ZM206.355 54.7773V54.5312C206.355 54.0156 206.316 53.5312 206.238 53.0781C206.168 52.6172 206.043 52.2148 205.863 51.8711C205.684 51.5195 205.438 51.2422 205.125 51.0391C204.82 50.8359 204.426 50.7344 203.941 50.7344C203.48 50.7344 203.09 50.8125 202.77 50.9688C202.449 51.125 202.184 51.3438 201.973 51.625C201.77 51.9062 201.617 52.2422 201.516 52.6328C201.414 53.0156 201.352 53.4375 201.328 53.8984V55.4336C201.352 56.0508 201.453 56.5977 201.633 57.0742C201.82 57.543 202.102 57.9141 202.477 58.1875C202.859 58.4531 203.355 58.5859 203.965 58.5859C204.441 58.5859 204.836 58.4922 205.148 58.3047C205.461 58.1172 205.703 57.8516 205.875 57.5078C206.055 57.1641 206.18 56.7617 206.25 56.3008C206.32 55.832 206.355 55.3242 206.355 54.7773Z" fill="#888888"/>
<path d="M114.117 84.875H122.344V107.164C122.344 109.82 121.789 112.07 120.68 113.914C119.57 115.742 118.016 117.125 116.016 118.062C114.016 119 111.664 119.469 108.961 119.469C106.289 119.469 103.938 119 101.906 118.062C99.8906 117.125 98.3125 115.742 97.1719 113.914C96.0469 112.07 95.4844 109.82 95.4844 107.164V84.875H103.734V107.164C103.734 108.57 103.938 109.719 104.344 110.609C104.75 111.484 105.344 112.125 106.125 112.531C106.906 112.938 107.852 113.141 108.961 113.141C110.086 113.141 111.031 112.938 111.797 112.531C112.562 112.125 113.141 111.484 113.531 110.609C113.922 109.719 114.117 108.57 114.117 107.164V84.875ZM136.266 84.875V119H128.062V84.875H136.266ZM172.523 84.875H180.75V107.164C180.75 109.82 180.195 112.07 179.086 113.914C177.977 115.742 176.422 117.125 174.422 118.062C172.422 119 170.07 119.469 167.367 119.469C164.695 119.469 162.344 119 160.312 118.062C158.297 117.125 156.719 115.742 155.578 113.914C154.453 112.07 153.891 109.82 153.891 107.164V84.875H162.141V107.164C162.141 108.57 162.344 109.719 162.75 110.609C163.156 111.484 163.75 112.125 164.531 112.531C165.312 112.938 166.258 113.141 167.367 113.141C168.492 113.141 169.438 112.938 170.203 112.531C170.969 112.125 171.547 111.484 171.938 110.609C172.328 109.719 172.523 108.57 172.523 107.164V84.875ZM193.078 84.875L198.656 96.2188L204.234 84.875H213.609L204.094 101.797L213.867 119H204.398L198.656 107.445L192.914 119H183.422L193.219 101.797L183.68 84.875H193.078Z" fill="black"/>
<path d="M1134 0H1348C1356.28 0 1363 6.71573 1363 15V148C1363 156.284 1356.28 163 1348 163H1134V0Z" fill="#00FF00"/>
<path d="M1248.5 111.917C1244.51 111.917 1240.55 111.13 1236.86 109.601C1233.17 108.073 1229.82 105.832 1226.99 103.008C1221.29 97.3036 1218.08 89.567 1218.08 81.5C1218.08 73.433 1221.29 65.6964 1226.99 59.9922C1232.7 54.2879 1240.43 51.0833 1248.5 51.0833C1265.23 51.0833 1278.92 63.25 1278.92 78.4583C1278.92 83.2985 1276.99 87.9405 1273.57 91.363C1270.15 94.7856 1265.51 96.7083 1260.67 96.7083H1255.19C1254.28 96.7083 1253.67 97.3167 1253.67 98.2292C1253.67 98.5333 1253.97 98.8375 1253.97 99.1417C1255.19 100.662 1255.8 102.487 1255.8 104.312C1256.1 108.571 1252.76 111.917 1248.5 111.917ZM1248.5 57.1667C1242.05 57.1667 1235.86 59.7303 1231.29 64.2937C1226.73 68.8571 1224.17 75.0464 1224.17 81.5C1224.17 87.9536 1226.73 94.1429 1231.29 98.7063C1235.86 103.27 1242.05 105.833 1248.5 105.833C1249.41 105.833 1250.02 105.225 1250.02 104.312C1250.02 103.704 1249.72 103.4 1249.72 103.096C1248.5 101.575 1247.89 100.054 1247.89 98.2292C1247.89 93.9708 1251.24 90.625 1255.5 90.625H1260.67C1263.89 90.625 1266.99 89.3432 1269.27 87.0615C1271.55 84.7798 1272.83 81.6851 1272.83 78.4583C1272.83 66.5958 1261.88 57.1667 1248.5 57.1667ZM1231.77 75.4167C1234.2 75.4167 1236.33 77.5458 1236.33 79.9792C1236.33 82.4125 1234.2 84.5417 1231.77 84.5417C1229.34 84.5417 1227.21 82.4125 1227.21 79.9792C1227.21 77.5458 1229.34 75.4167 1231.77 75.4167ZM1240.9 63.25C1243.33 63.25 1245.46 65.3792 1245.46 67.8125C1245.46 70.2458 1243.33 72.375 1240.9 72.375C1238.46 72.375 1236.33 70.2458 1236.33 67.8125C1236.33 65.3792 1238.46 63.25 1240.9 63.25ZM1256.1 63.25C1258.54 63.25 1260.67 65.3792 1260.67 67.8125C1260.67 70.2458 1258.54 72.375 1256.1 72.375C1253.67 72.375 1251.54 70.2458 1251.54 67.8125C1251.54 65.3792 1253.67 63.25 1256.1 63.25ZM1265.23 75.4167C1267.66 75.4167 1269.79 77.5458 1269.79 79.9792C1269.79 82.4125 1267.66 84.5417 1265.23 84.5417C1262.8 84.5417 1260.67 82.4125 1260.67 79.9792C1260.67 77.5458 1262.8 75.4167 1265.23 75.4167Z" fill="white"/>
</svg>
