<svg width="1363" height="163" viewBox="0 0 1363 163" fill="none" xmlns="http://www.w3.org/2000/svg">
<path d="M0 15C0 6.71573 6.71573 0 15 0H37V163H15C6.71573 163 0 156.284 0 148V15Z" fill="#424242"/>
<rect width="1097" height="163" transform="translate(37)" fill="#F0F0F0"/>
<path d="M101.906 53.9219L94.3945 51.2383V48.0859L104.602 52.375V54.6367L101.906 53.9219ZM94.3945 56.1719L101.918 53.4297L104.602 52.7852V55.0352L94.3945 59.3242V56.1719ZM119.578 53.5117H115.195L115.172 51.0977H118.852C119.5 51.0977 120.031 51.0156 120.445 50.8516C120.859 50.6797 121.168 50.4336 121.371 50.1133C121.582 49.7852 121.688 49.3867 121.688 48.918C121.688 48.3867 121.586 47.957 121.383 47.6289C121.188 47.3008 120.879 47.0625 120.457 46.9141C120.043 46.7656 119.508 46.6914 118.852 46.6914H116.414V61H112.898V43.9375H118.852C119.844 43.9375 120.73 44.0312 121.512 44.2188C122.301 44.4062 122.969 44.6914 123.516 45.0742C124.062 45.457 124.48 45.9414 124.77 46.5273C125.059 47.1055 125.203 47.793 125.203 48.5898C125.203 49.293 125.043 49.9414 124.723 50.5352C124.41 51.1289 123.914 51.6133 123.234 51.9883C122.562 52.3633 121.684 52.5703 120.598 52.6094L119.578 53.5117ZM119.426 61H114.234L115.605 58.2578H119.426C120.043 58.2578 120.547 58.1602 120.938 57.9648C121.328 57.7617 121.617 57.4883 121.805 57.1445C121.992 56.8008 122.086 56.4062 122.086 55.9609C122.086 55.4609 122 55.0273 121.828 54.6602C121.664 54.293 121.398 54.0117 121.031 53.8164C120.664 53.6133 120.18 53.5117 119.578 53.5117H116.191L116.215 51.0977H120.434L121.242 52.0469C122.281 52.0312 123.117 52.2148 123.75 52.5977C124.391 52.9727 124.855 53.4609 125.145 54.0625C125.441 54.6641 125.59 55.3086 125.59 55.9961C125.59 57.0898 125.352 58.0117 124.875 58.7617C124.398 59.5039 123.699 60.0625 122.777 60.4375C121.863 60.8125 120.746 61 119.426 61ZM127.477 54.7891V54.543C127.477 53.6133 127.609 52.7578 127.875 51.9766C128.141 51.1875 128.527 50.5039 129.035 49.9258C129.543 49.3477 130.168 48.8984 130.91 48.5781C131.652 48.25 132.504 48.0859 133.465 48.0859C134.426 48.0859 135.281 48.25 136.031 48.5781C136.781 48.8984 137.41 49.3477 137.918 49.9258C138.434 50.5039 138.824 51.1875 139.09 51.9766C139.355 52.7578 139.488 53.6133 139.488 54.543V54.7891C139.488 55.7109 139.355 56.5664 139.09 57.3555C138.824 58.1367 138.434 58.8203 137.918 59.4062C137.41 59.9844 136.785 60.4336 136.043 60.7539C135.301 61.0742 134.449 61.2344 133.488 61.2344C132.527 61.2344 131.672 61.0742 130.922 60.7539C130.18 60.4336 129.551 59.9844 129.035 59.4062C128.527 58.8203 128.141 58.1367 127.875 57.3555C127.609 56.5664 127.477 55.7109 127.477 54.7891ZM130.852 54.543V54.7891C130.852 55.3203 130.898 55.8164 130.992 56.2773C131.086 56.7383 131.234 57.1445 131.438 57.4961C131.648 57.8398 131.922 58.1094 132.258 58.3047C132.594 58.5 133.004 58.5977 133.488 58.5977C133.957 58.5977 134.359 58.5 134.695 58.3047C135.031 58.1094 135.301 57.8398 135.504 57.4961C135.707 57.1445 135.855 56.7383 135.949 56.2773C136.051 55.8164 136.102 55.3203 136.102 54.7891V54.543C136.102 54.0273 136.051 53.543 135.949 53.0898C135.855 52.6289 135.703 52.2227 135.492 51.8711C135.289 51.5117 135.02 51.2305 134.684 51.0273C134.348 50.8242 133.941 50.7227 133.465 50.7227C132.988 50.7227 132.582 50.8242 132.246 51.0273C131.918 51.2305 131.648 51.5117 131.438 51.8711C131.234 52.2227 131.086 52.6289 130.992 53.0898C130.898 53.543 130.852 54.0273 130.852 54.543ZM141.023 54.7891V54.543C141.023 53.6133 141.156 52.7578 141.422 51.9766C141.688 51.1875 142.074 50.5039 142.582 49.9258C143.09 49.3477 143.715 48.8984 144.457 48.5781C145.199 48.25 146.051 48.0859 147.012 48.0859C147.973 48.0859 148.828 48.25 149.578 48.5781C150.328 48.8984 150.957 49.3477 151.465 49.9258C151.98 50.5039 152.371 51.1875 152.637 51.9766C152.902 52.7578 153.035 53.6133 153.035 54.543V54.7891C153.035 55.7109 152.902 56.5664 152.637 57.3555C152.371 58.1367 151.98 58.8203 151.465 59.4062C150.957 59.9844 150.332 60.4336 149.59 60.7539C148.848 61.0742 147.996 61.2344 147.035 61.2344C146.074 61.2344 145.219 61.0742 144.469 60.7539C143.727 60.4336 143.098 59.9844 142.582 59.4062C142.074 58.8203 141.688 58.1367 141.422 57.3555C141.156 56.5664 141.023 55.7109 141.023 54.7891ZM144.398 54.543V54.7891C144.398 55.3203 144.445 55.8164 144.539 56.2773C144.633 56.7383 144.781 57.1445 144.984 57.4961C145.195 57.8398 145.469 58.1094 145.805 58.3047C146.141 58.5 146.551 58.5977 147.035 58.5977C147.504 58.5977 147.906 58.5 148.242 58.3047C148.578 58.1094 148.848 57.8398 149.051 57.4961C149.254 57.1445 149.402 56.7383 149.496 56.2773C149.598 55.8164 149.648 55.3203 149.648 54.7891V54.543C149.648 54.0273 149.598 53.543 149.496 53.0898C149.402 52.6289 149.25 52.2227 149.039 51.8711C148.836 51.5117 148.566 51.2305 148.23 51.0273C147.895 50.8242 147.488 50.7227 147.012 50.7227C146.535 50.7227 146.129 50.8242 145.793 51.0273C145.465 51.2305 145.195 51.5117 144.984 51.8711C144.781 52.2227 144.633 52.6289 144.539 53.0898C144.445 53.543 144.398 54.0273 144.398 54.543ZM158.484 42.9883V61H155.109V42.9883H158.484ZM166.477 48.3203L160.969 54.6016L158.016 57.5898L156.785 55.1523L159.129 52.1758L162.422 48.3203H166.477ZM162.973 61L159.223 55.1406L161.555 53.1016L166.863 61H162.973ZM179.52 50.8867V53.6289H170.613V50.8867H179.52ZM171.656 43.9375V61H168.141V43.9375H171.656ZM182.027 43.9375V61H178.523V43.9375H182.027ZM192.375 57.9648V48.3203H195.75V61H192.574L192.375 57.9648ZM192.75 55.3633L193.746 55.3398C193.746 56.1836 193.648 56.9688 193.453 57.6953C193.258 58.4141 192.965 59.0391 192.574 59.5703C192.184 60.0938 191.691 60.5039 191.098 60.8008C190.504 61.0898 189.805 61.2344 189 61.2344C188.383 61.2344 187.812 61.1484 187.289 60.9766C186.773 60.7969 186.328 60.5195 185.953 60.1445C185.586 59.7617 185.297 59.2734 185.086 58.6797C184.883 58.0781 184.781 57.3555 184.781 56.5117V48.3203H188.156V56.5352C188.156 56.9102 188.199 57.2266 188.285 57.4844C188.379 57.7422 188.508 57.9531 188.672 58.1172C188.836 58.2812 189.027 58.3984 189.246 58.4688C189.473 58.5391 189.723 58.5742 189.996 58.5742C190.691 58.5742 191.238 58.4336 191.637 58.1523C192.043 57.8711 192.328 57.4883 192.492 57.0039C192.664 56.5117 192.75 55.9648 192.75 55.3633ZM198.328 43H201.703V58.0938L201.363 61H198.328V43ZM209.73 54.5312V54.7773C209.73 55.7227 209.629 56.5898 209.426 57.3789C209.23 58.168 208.926 58.8516 208.512 59.4297C208.098 60 207.582 60.4453 206.965 60.7656C206.355 61.0781 205.637 61.2344 204.809 61.2344C204.035 61.2344 203.363 61.0781 202.793 60.7656C202.23 60.4531 201.758 60.0117 201.375 59.4414C200.992 58.8711 200.684 58.2031 200.449 57.4375C200.215 56.6719 200.039 55.8359 199.922 54.9297V54.3906C200.039 53.4844 200.215 52.6484 200.449 51.8828C200.684 51.1172 200.992 50.4492 201.375 49.8789C201.758 49.3086 202.23 48.8672 202.793 48.5547C203.355 48.2422 204.02 48.0859 204.785 48.0859C205.621 48.0859 206.348 48.2461 206.965 48.5664C207.59 48.8789 208.105 49.3242 208.512 49.9023C208.926 50.4727 209.23 51.1523 209.426 51.9414C209.629 52.7227 209.73 53.5859 209.73 54.5312ZM206.355 54.7773V54.5312C206.355 54.0156 206.316 53.5312 206.238 53.0781C206.168 52.6172 206.043 52.2148 205.863 51.8711C205.684 51.5195 205.438 51.2422 205.125 51.0391C204.82 50.8359 204.426 50.7344 203.941 50.7344C203.48 50.7344 203.09 50.8125 202.77 50.9688C202.449 51.125 202.184 51.3438 201.973 51.625C201.77 51.9062 201.617 52.2422 201.516 52.6328C201.414 53.0156 201.352 53.4375 201.328 53.8984V55.4336C201.352 56.0508 201.453 56.5977 201.633 57.0742C201.82 57.543 202.102 57.9141 202.477 58.1875C202.859 58.4531 203.355 58.5859 203.965 58.5859C204.441 58.5859 204.836 58.4922 205.148 58.3047C205.461 58.1172 205.703 57.8516 205.875 57.5078C206.055 57.1641 206.18 56.7617 206.25 56.3008C206.32 55.832 206.355 55.3242 206.355 54.7773Z" fill="#888888"/>
<path d="M114.117 84.875H122.344V107.164C122.344 109.82 121.789 112.07 120.68 113.914C119.57 115.742 118.016 117.125 116.016 118.062C114.016 119 111.664 119.469 108.961 119.469C106.289 119.469 103.938 119 101.906 118.062C99.8906 117.125 98.3125 115.742 97.1719 113.914C96.0469 112.07 95.4844 109.82 95.4844 107.164V84.875H103.734V107.164C103.734 108.57 103.938 109.719 104.344 110.609C104.75 111.484 105.344 112.125 106.125 112.531C106.906 112.938 107.852 113.141 108.961 113.141C110.086 113.141 111.031 112.938 111.797 112.531C112.562 112.125 113.141 111.484 113.531 110.609C113.922 109.719 114.117 108.57 114.117 107.164V84.875ZM134.906 99.0547V119H127.008V93.6406H134.414L134.906 99.0547ZM133.969 105.453L132.117 105.5C132.117 103.562 132.352 101.836 132.82 100.32C133.289 98.7891 133.953 97.4922 134.812 96.4297C135.672 95.3672 136.695 94.5625 137.883 94.0156C139.086 93.4531 140.422 93.1719 141.891 93.1719C143.062 93.1719 144.133 93.3438 145.102 93.6875C146.086 94.0312 146.93 94.5859 147.633 95.3516C148.352 96.1172 148.898 97.1328 149.273 98.3984C149.664 99.6484 149.859 101.195 149.859 103.039V119H141.914V103.016C141.914 102 141.773 101.227 141.492 100.695C141.211 100.148 140.805 99.7734 140.273 99.5703C139.742 99.3672 139.094 99.2656 138.328 99.2656C137.516 99.2656 136.828 99.4219 136.266 99.7344C135.703 100.047 135.25 100.484 134.906 101.047C134.578 101.594 134.336 102.242 134.18 102.992C134.039 103.742 133.969 104.562 133.969 105.453ZM162.586 93.6406V119H154.664V93.6406H162.586ZM154.195 87.1016C154.195 85.9766 154.602 85.0547 155.414 84.3359C156.227 83.6172 157.281 83.2578 158.578 83.2578C159.875 83.2578 160.93 83.6172 161.742 84.3359C162.555 85.0547 162.961 85.9766 162.961 87.1016C162.961 88.2266 162.555 89.1484 161.742 89.8672C160.93 90.5859 159.875 90.9453 158.578 90.9453C157.281 90.9453 156.227 90.5859 155.414 89.8672C154.602 89.1484 154.195 88.2266 154.195 87.1016ZM180.82 93.6406V99.125H165.539V93.6406H180.82ZM168.75 87.3359H176.648V110.727C176.648 111.398 176.727 111.922 176.883 112.297C177.039 112.656 177.305 112.914 177.68 113.07C178.07 113.211 178.586 113.281 179.227 113.281C179.68 113.281 180.055 113.273 180.352 113.258C180.648 113.227 180.93 113.188 181.195 113.141V118.789C180.523 119.008 179.82 119.172 179.086 119.281C178.352 119.406 177.57 119.469 176.742 119.469C175.055 119.469 173.609 119.203 172.406 118.672C171.219 118.141 170.312 117.305 169.688 116.164C169.062 115.023 168.75 113.539 168.75 111.711V87.3359ZM211.406 84.875V119H203.18V84.875H211.406ZM221.672 84.875V91.2266H193.148V84.875H221.672ZM234.961 119.469C232.898 119.469 231.055 119.148 229.43 118.508C227.805 117.852 226.43 116.953 225.305 115.812C224.195 114.672 223.344 113.359 222.75 111.875C222.172 110.391 221.883 108.82 221.883 107.164V106.273C221.883 104.414 222.141 102.695 222.656 101.117C223.172 99.5234 223.938 98.1328 224.953 96.9453C225.969 95.7578 227.242 94.8359 228.773 94.1797C230.305 93.5078 232.086 93.1719 234.117 93.1719C235.914 93.1719 237.523 93.4609 238.945 94.0391C240.367 94.6172 241.57 95.4453 242.555 96.5234C243.555 97.6016 244.312 98.9062 244.828 100.438C245.359 101.969 245.625 103.688 245.625 105.594V108.805H224.906V103.859H237.914V103.25C237.93 102.406 237.781 101.688 237.469 101.094C237.172 100.5 236.734 100.047 236.156 99.7344C235.578 99.4219 234.875 99.2656 234.047 99.2656C233.188 99.2656 232.477 99.4531 231.914 99.8281C231.367 100.203 230.938 100.719 230.625 101.375C230.328 102.016 230.117 102.758 229.992 103.602C229.867 104.445 229.805 105.336 229.805 106.273V107.164C229.805 108.102 229.93 108.953 230.18 109.719C230.445 110.484 230.82 111.141 231.305 111.688C231.805 112.219 232.398 112.633 233.086 112.93C233.789 113.227 234.586 113.375 235.477 113.375C236.555 113.375 237.617 113.172 238.664 112.766C239.711 112.359 240.609 111.688 241.359 110.75L244.945 115.016C244.43 115.75 243.695 116.461 242.742 117.148C241.805 117.836 240.68 118.398 239.367 118.836C238.055 119.258 236.586 119.469 234.961 119.469ZM262.125 111.875C262.125 111.438 261.977 111.062 261.68 110.75C261.398 110.422 260.898 110.125 260.18 109.859C259.461 109.578 258.453 109.297 257.156 109.016C255.922 108.75 254.758 108.398 253.664 107.961C252.586 107.523 251.641 106.992 250.828 106.367C250.016 105.742 249.375 105 248.906 104.141C248.453 103.281 248.227 102.297 248.227 101.188C248.227 100.109 248.453 99.0938 248.906 98.1406C249.375 97.1719 250.055 96.3203 250.945 95.5859C251.852 94.8359 252.953 94.25 254.25 93.8281C255.547 93.3906 257.023 93.1719 258.68 93.1719C260.961 93.1719 262.93 93.5234 264.586 94.2266C266.242 94.9141 267.516 95.8828 268.406 97.1328C269.312 98.3672 269.766 99.7969 269.766 101.422H261.867C261.867 100.781 261.758 100.234 261.539 99.7812C261.336 99.3281 261 98.9844 260.531 98.75C260.062 98.5 259.438 98.375 258.656 98.375C258.109 98.375 257.609 98.4766 257.156 98.6797C256.719 98.8828 256.367 99.1641 256.102 99.5234C255.836 99.8828 255.703 100.305 255.703 100.789C255.703 101.133 255.781 101.445 255.938 101.727C256.109 101.992 256.367 102.242 256.711 102.477C257.055 102.695 257.492 102.898 258.023 103.086C258.555 103.258 259.195 103.414 259.945 103.555C261.648 103.867 263.242 104.312 264.727 104.891C266.211 105.469 267.414 106.289 268.336 107.352C269.273 108.414 269.742 109.844 269.742 111.641C269.742 112.766 269.484 113.805 268.969 114.758C268.453 115.695 267.711 116.523 266.742 117.242C265.773 117.945 264.609 118.492 263.25 118.883C261.891 119.273 260.359 119.469 258.656 119.469C256.234 119.469 254.188 119.039 252.516 118.18C250.844 117.305 249.578 116.211 248.719 114.898C247.875 113.57 247.453 112.227 247.453 110.867H254.812C254.844 111.648 255.031 112.289 255.375 112.789C255.734 113.289 256.211 113.656 256.805 113.891C257.398 114.125 258.086 114.242 258.867 114.242C259.586 114.242 260.18 114.141 260.648 113.938C261.133 113.734 261.5 113.461 261.75 113.117C262 112.758 262.125 112.344 262.125 111.875ZM286.805 93.6406V99.125H271.523V93.6406H286.805ZM274.734 87.3359H282.633V110.727C282.633 111.398 282.711 111.922 282.867 112.297C283.023 112.656 283.289 112.914 283.664 113.07C284.055 113.211 284.57 113.281 285.211 113.281C285.664 113.281 286.039 113.273 286.336 113.258C286.633 113.227 286.914 113.188 287.18 113.141V118.789C286.508 119.008 285.805 119.172 285.07 119.281C284.336 119.406 283.555 119.469 282.727 119.469C281.039 119.469 279.594 119.203 278.391 118.672C277.203 118.141 276.297 117.305 275.672 116.164C275.047 115.023 274.734 113.539 274.734 111.711V87.3359ZM298.289 93.6406V119H290.367V93.6406H298.289ZM289.898 87.1016C289.898 85.9766 290.305 85.0547 291.117 84.3359C291.93 83.6172 292.984 83.2578 294.281 83.2578C295.578 83.2578 296.633 83.6172 297.445 84.3359C298.258 85.0547 298.664 85.9766 298.664 87.1016C298.664 88.2266 298.258 89.1484 297.445 89.8672C296.633 90.5859 295.578 90.9453 294.281 90.9453C292.984 90.9453 291.93 90.5859 291.117 89.8672C290.305 89.1484 289.898 88.2266 289.898 87.1016ZM310.922 99.0547V119H303.023V93.6406H310.43L310.922 99.0547ZM309.984 105.453L308.133 105.5C308.133 103.562 308.367 101.836 308.836 100.32C309.305 98.7891 309.969 97.4922 310.828 96.4297C311.688 95.3672 312.711 94.5625 313.898 94.0156C315.102 93.4531 316.438 93.1719 317.906 93.1719C319.078 93.1719 320.148 93.3438 321.117 93.6875C322.102 94.0312 322.945 94.5859 323.648 95.3516C324.367 96.1172 324.914 97.1328 325.289 98.3984C325.68 99.6484 325.875 101.195 325.875 103.039V119H317.93V103.016C317.93 102 317.789 101.227 317.508 100.695C317.227 100.148 316.82 99.7734 316.289 99.5703C315.758 99.3672 315.109 99.2656 314.344 99.2656C313.531 99.2656 312.844 99.4219 312.281 99.7344C311.719 100.047 311.266 100.484 310.922 101.047C310.594 101.594 310.352 102.242 310.195 102.992C310.055 103.742 309.984 104.562 309.984 105.453ZM346.195 93.6406H353.367V118.016C353.367 120.359 352.828 122.344 351.75 123.969C350.672 125.609 349.164 126.852 347.227 127.695C345.305 128.555 343.055 128.984 340.477 128.984C339.336 128.984 338.172 128.836 336.984 128.539C335.797 128.258 334.688 127.836 333.656 127.273C332.625 126.711 331.758 126.016 331.055 125.188L334.359 120.547C335 121.266 335.805 121.875 336.773 122.375C337.742 122.891 338.883 123.148 340.195 123.148C341.336 123.148 342.289 122.945 343.055 122.539C343.836 122.133 344.43 121.539 344.836 120.758C345.242 119.992 345.445 119.062 345.445 117.969V99.6406L346.195 93.6406ZM329.344 106.625V106.133C329.344 104.211 329.578 102.461 330.047 100.883C330.531 99.2891 331.219 97.9219 332.109 96.7812C333.016 95.625 334.109 94.7344 335.391 94.1094C336.672 93.4844 338.117 93.1719 339.727 93.1719C341.461 93.1719 342.883 93.5078 343.992 94.1797C345.117 94.8359 346.016 95.7578 346.688 96.9453C347.375 98.1328 347.906 99.5234 348.281 101.117C348.672 102.695 349 104.398 349.266 106.227V106.812C349 108.531 348.633 110.156 348.164 111.688C347.711 113.203 347.117 114.547 346.383 115.719C345.648 116.891 344.727 117.812 343.617 118.484C342.523 119.141 341.211 119.469 339.68 119.469C338.086 119.469 336.648 119.148 335.367 118.508C334.102 117.867 333.016 116.969 332.109 115.812C331.219 114.656 330.531 113.297 330.047 111.734C329.578 110.172 329.344 108.469 329.344 106.625ZM337.242 106.133V106.625C337.242 107.578 337.328 108.461 337.5 109.273C337.688 110.086 337.969 110.805 338.344 111.43C338.719 112.039 339.18 112.516 339.727 112.859C340.289 113.203 340.945 113.375 341.695 113.375C342.836 113.375 343.758 113.133 344.461 112.648C345.164 112.164 345.672 111.477 345.984 110.586C346.297 109.695 346.43 108.648 346.383 107.445V105.594C346.414 104.562 346.344 103.656 346.172 102.875C346 102.078 345.727 101.414 345.352 100.883C344.992 100.352 344.508 99.9531 343.898 99.6875C343.305 99.4062 342.586 99.2656 341.742 99.2656C341.008 99.2656 340.359 99.4375 339.797 99.7812C339.234 100.125 338.766 100.609 338.391 101.234C338.016 101.844 337.727 102.57 337.523 103.414C337.336 104.242 337.242 105.148 337.242 106.133Z" fill="black"/>
<path d="M1134 0H1348C1356.28 0 1363 6.71573 1363 15V148C1363 156.284 1356.28 163 1348 163H1134V0Z" fill="#00FF00"/>
<path d="M1210.62 43.625H1286.38V119.375H1210.62V43.625Z" fill="white" fill-opacity="0.01"/>
<path d="M1276.91 72.0312V105.172C1276.91 107.787 1274.79 109.906 1272.17 109.906H1224.83C1222.21 109.906 1220.09 107.787 1220.09 105.172V57.8281C1220.09 55.2134 1222.21 53.0938 1224.83 53.0938H1261.12" stroke="white" stroke-width="7.24" stroke-linecap="round" stroke-linejoin="round"/>
<path d="M1232.72 75.1875L1248.5 87.8125L1276.91 53.0938" stroke="white" stroke-width="7.24" stroke-linecap="round" stroke-linejoin="round"/>
</svg>
